<svg xmlns="http://www.w3.org/2000/svg" version="1.1" xmlns:xlink="http://www.w3.org/1999/xlink" width="512" height="512" x="0" y="0" viewBox="0 0 512 512" style="enable-background:new 0 0 512 512" xml:space="preserve" class="">
    <g><linearGradient id="b" x1="134.435" x2="377.565" y1="377.565" y2="134.435" gradientUnits="userSpaceOnUse"><stop offset=".015" stop-color="#f9cd55"></stop><stop offset="1" stop-color="#fdbc8c"></stop></linearGradient><linearGradient id="a" x1="353.247" x2="470.752" y1="194.752" y2="77.248" gradientUnits="userSpaceOnUse"><stop offset=".015" stop-color="#b7bfd8"></stop><stop offset="1" stop-color="#e4f2ee"></stop></linearGradient><linearGradient xlink:href="#a" id="c" x1="41.247" x2="158.752" y1="434.752" y2="317.248"></linearGradient><g data-name="02-sunny"><g data-name="gradient blend"><circle cx="256" cy="256" r="172" fill="url(#b)" opacity="1" data-original="url(#b)" class=""></circle><path fill="url(#a)" d="M458.618 84.065a52.007 52.007 0 0 0-101.477 1.076A52 52 0 0 0 368 188h88a52 52 0 0 0 2.618-103.935z" opacity="1" data-original="url(#a)"></path><path fill="url(#a)" d="M146.618 324.065a52.007 52.007 0 0 0-101.477 1.076A52 52 0 0 0 56 428h88a52 52 0 0 0 2.618-103.935z" opacity="1" data-original="url(#a)"></path><g fill="#fce6aa"><path d="M256 60a12 12 0 0 1-12-12V23a12 12 0 0 1 24 0v25a12 12 0 0 1-12 12zM152.011 87.869a12 12 0 0 1-10.4-6l-12.5-21.651a12 12 0 0 1 20.784-12l12.5 21.651a12 12 0 0 1-10.381 18zM75.855 164a11.94 11.94 0 0 1-5.988-1.61l-21.651-12.5a12 12 0 1 1 12-20.784l21.651 12.5A12 12 0 0 1 75.855 164zM48 268H23a12 12 0 0 1 0-24h25a12 12 0 0 1 0 24zM256 501a12 12 0 0 1-12-12v-25a12 12 0 0 1 24 0v25a12 12 0 0 1-12 12zM372.511 469.786a12 12 0 0 1-10.4-6l-12.5-21.651a12 12 0 1 1 20.784-12l12.5 21.651a12 12 0 0 1-10.381 18zM457.772 384.5a11.94 11.94 0 0 1-5.988-1.61l-21.651-12.5a12 12 0 0 1 12-20.784l21.651 12.5a12 12 0 0 1-6.012 22.394zM489 268h-25a12 12 0 0 1 0-24h25a12 12 0 0 1 0 24z" fill="#fce6aa" opacity="1" data-original="#fce6aa"></path></g></g></g></g>
</svg>