<svg xmlns="http://www.w3.org/2000/svg" version="1.1" xmlns:xlink="http://www.w3.org/1999/xlink" width="30" height="30" x="0" y="0" viewBox="0 0 32 32" style="enable-background:new 0 0 512 512" xml:space="preserve" class=""><g><linearGradient id="a"><stop offset="0" stop-color="#42a5f5"></stop><stop offset="1" stop-color="#1e88e5"></stop></linearGradient><linearGradient xlink:href="#a" id="b" x1="11" x2="14" y1="25" y2="25" gradientUnits="userSpaceOnUse"></linearGradient><linearGradient xlink:href="#a" id="c" x1="5" x2="8" y1="25" y2="25" gradientUnits="userSpaceOnUse"></linearGradient><linearGradient xlink:href="#a" id="d" x1="7" x2="10" y1="29" y2="29" gradientUnits="userSpaceOnUse"></linearGradient><linearGradient xlink:href="#a" id="e" x1="13" x2="16" y1="29" y2="29" gradientUnits="userSpaceOnUse"></linearGradient><linearGradient xlink:href="#a" id="f" x1="19" x2="22" y1="29" y2="29" gradientUnits="userSpaceOnUse"></linearGradient><linearGradient xlink:href="#a" id="g" x1="17" x2="20" y1="25" y2="25" gradientUnits="userSpaceOnUse"></linearGradient><linearGradient xlink:href="#a" id="h" x1="23" x2="26" y1="25" y2="25" gradientUnits="userSpaceOnUse"></linearGradient><linearGradient id="i" x1="1" x2="31" y1="11" y2="11" gradientUnits="userSpaceOnUse"><stop offset="0" stop-color="#bbdefb"></stop><stop offset="1" stop-color="#64b5f6"></stop></linearGradient><path fill="url(#b)" d="M11.999 27a1 1 0 0 1-.893-1.447l1-2a1 1 0 0 1 1.789.895l-1 2c-.176.35-.529.552-.896.552z" opacity="1" data-original="url(#b)"></path><path fill="url(#c)" d="M5.999 27a1 1 0 0 1-.893-1.447l1-2a1 1 0 0 1 1.789.895l-1 2c-.176.35-.529.552-.896.552z" opacity="1" data-original="url(#c)"></path><path fill="url(#d)" d="M7.999 31a1 1 0 0 1-.893-1.447l1-2a1 1 0 0 1 1.789.895l-1 2c-.176.35-.529.552-.896.552z" opacity="1" data-original="url(#d)"></path><path fill="url(#e)" d="M13.999 31a1 1 0 0 1-.893-1.447l1-2a1 1 0 0 1 1.789.895l-1 2c-.176.35-.529.552-.896.552z" opacity="1" data-original="url(#e)"></path><path fill="url(#f)" d="M19.999 31a1 1 0 0 1-.893-1.447l1-2a1 1 0 0 1 1.789.895l-1 2c-.176.35-.529.552-.896.552z" opacity="1" data-original="url(#f)"></path><path fill="url(#g)" d="M17.999 27a1 1 0 0 1-.893-1.447l1-2a1 1 0 0 1 1.789.895l-1 2c-.176.35-.529.552-.896.552z" opacity="1" data-original="url(#g)"></path><path fill="url(#h)" d="M23.999 27a1 1 0 0 1-.893-1.447l1-2a1 1 0 0 1 1.789.895l-1 2c-.176.35-.529.552-.896.552z" opacity="1" data-original="url(#h)"></path><path fill="url(#i)" d="M23 5c-.491 0-.973.042-1.438.127A8.95 8.95 0 0 0 14 1C9.989 1 6.438 3.71 5.35 7.52A6.96 6.96 0 0 0 1 14c0 3.86 3.141 7 7 7h15c4.411 0 8-3.589 8-8s-3.589-8-8-8z" opacity="1" data-original="url(#i)" class=""></path></g></svg>